<svg xmlns="http://www.w3.org/2000/svg" width="50.055" height="42.884" viewBox="0 0 50.055 42.884">
  <g id="Gruppe_44" data-name="Gruppe 44" transform="translate(0.5)">
    <g id="Gruppe_87" data-name="Gruppe 87">
      <g id="Gruppe_40" data-name="Gruppe 40" transform="translate(0.326)">
        <path id="Pfad_23" data-name="Pfad 23" d="M280.736,695.523c2.494-.92,7.389-1.58,12.252-2.037l9.842-3.661c-1.357.066-2.774.143-4.221.232-8.551.524-18.212,1.467-22.878,3.152-3.628,1.311-6.191,2.883-7.584,4.543h8.463A13.488,13.488,0,0,1,280.736,695.523Z" transform="translate(-266.937 -684.865)" fill="#1baaba"/>
        <path id="Pfad_24" data-name="Pfad 24" d="M309.848,700.591a56.911,56.911,0,0,0,5.124-11.173L316,684.865l-7.572,2.829-1.784,4.9c-.551,3.055-5.085,7.994-5.085,7.994a12.126,12.126,0,0,1-3.984,2.718c-6.162,2.44-14.2,2.549-19.251.106-1.778-.859-2.753-1.831-2.989-2.827h-8.4c-.05,1.9,1.459,3.791,4.676,5.391,8.009,3.985,21.683,3.872,31.5-.109A16.556,16.556,0,0,0,309.848,700.591Z" transform="translate(-266.937 -684.865)" fill="#1baaba"/>
      </g>
      <g id="Gruppe_41" data-name="Gruppe 41" transform="translate(0 4.96)">
        <path id="Pfad_25" data-name="Pfad 25" d="M266.612,705.548c-.049,1.9,1.46,3.791,4.676,5.391,8.01,3.985,21.684,3.872,31.505-.109a16.551,16.551,0,0,0,6.729-5.279,56.848,56.848,0,0,0,5.124-11.173l1.032-4.553" transform="translate(-266.611 -689.825)" fill="none" stroke="#1baaba" stroke-miterlimit="10" stroke-width="1"/>
      </g>
      <g id="Gruppe_42" data-name="Gruppe 42" transform="translate(0 12.023)">
        <path id="Pfad_26" data-name="Pfad 26" d="M266.612,712.612c-.049,1.9,1.46,3.791,4.676,5.391,8.01,3.985,21.684,3.872,31.505-.109a16.55,16.55,0,0,0,6.729-5.279,56.839,56.839,0,0,0,5.124-11.174l1.032-4.553" transform="translate(-266.611 -696.888)" fill="none" stroke="#1baaba" stroke-miterlimit="10" stroke-width="1"/>
      </g>
      <g id="Gruppe_43" data-name="Gruppe 43" transform="translate(0 18.336)">
        <path id="Pfad_27" data-name="Pfad 27" d="M266.612,718.925c-.049,1.9,1.46,3.791,4.676,5.391,8.01,3.985,21.684,3.872,31.505-.109a16.55,16.55,0,0,0,6.729-5.279,56.837,56.837,0,0,0,5.124-11.174l1.032-4.553" transform="translate(-266.611 -703.201)" fill="none" stroke="#1baaba" stroke-miterlimit="10" stroke-width="1"/>
      </g>
    </g>
  </g>
</svg>
