<svg xmlns="http://www.w3.org/2000/svg" width="90" height="44.1" viewBox="0 0 90 44.1">
  <g id="Gruppe_39" data-name="Gruppe 39" transform="translate(-157.235 -16.203)">
    <path id="Pfad_6" data-name="Pfad 6" d="M591.748,196.674c0-2.9,2.685-7.4,5.088-10.862.616-.887,1.214-1.7,1.743-2.407l-3.531-3.817c-.585.751-1.185,1.543-1.785,2.363-3.53,4.829-7.016,10.635-7.016,14.724a15.062,15.062,0,0,0,2.38,8.3l4.034-4.034A9.92,9.92,0,0,1,591.748,196.674Z" transform="translate(-429.013 -150.901)" fill="#1baaba"/>
    <path id="Pfad_7" data-name="Pfad 7" d="M616.6,177.181a174.339,174.339,0,0,0-11.339-15.02l-5.549-6.1v7.294l5.549,6.606c3.588,3.681,7.445,11.1,7.445,11.1a11.677,11.677,0,0,1,1.354,4.619c0,5.224-3.556,9-8.8,9a9.031,9.031,0,0,1-4.883-1.338l-3.948,3.934a14.356,14.356,0,0,0,8.83,2.885c8.283,0,14.3-6.225,14.3-14.479C619.557,183.262,618.332,180.243,616.6,177.181Z" transform="translate(-433.725 -139.858)" fill="#1baaba"/>
    <g id="Gruppe_38" data-name="Gruppe 38" transform="translate(192.356 34.632)">
      <path id="Pfad_19" data-name="Pfad 19" d="M847.143,581.83h-3.6v-18h3.6Z" transform="translate(-828.443 -563.548)" fill="#1baaba"/>
      <path id="Pfad_20" data-name="Pfad 20" d="M871.186,567.326l-3.343,1.543a3.419,3.419,0,0,0-3.291-1.955c-2.7,0-4.243,2.366-4.243,5.709,0,3.239,1.569,5.708,4.269,5.708,1.62,0,2.572-.694,3.523-2.288l3.035,1.8a6.877,6.877,0,0,1-6.66,4.062c-4.706,0-7.869-3.6-7.869-9.282,0-5.478,3.291-9.283,8-9.283A6.79,6.79,0,0,1,871.186,567.326Z" transform="translate(-833.972 -563.341)" fill="#1baaba"/>
      <path id="Pfad_21" data-name="Pfad 21" d="M900.968,581.83h-1.124a5.573,5.573,0,0,1-4.791-2.726h0c-.643-1.08-1.62-2.854-1.955-3.523-.309.668-1.285,2.392-1.954,3.523l-1.619,2.726h-4.294l5.708-9.206-5.451-8.794H887.1a4.7,4.7,0,0,1,4.047,2.314h0c.644,1.08,1.62,2.854,1.954,3.523.335-.668,1.286-2.391,1.955-3.523l1.363-2.314h4.294l-5.477,8.794Z" transform="translate(-846.089 -563.548)" fill="#1baaba"/>
      <path id="Pfad_22" data-name="Pfad 22" d="M829.985,581.831h-7.4a5.223,5.223,0,0,1-5.223-5.223V563.831h3.6v9.227c0,4.362-.641,5.223,5.223,5.223h1.3Z" transform="translate(-817.36 -563.548)" fill="#1baaba"/>
    </g>
  </g>
</svg>
